<svg xmlns="http://www.w3.org/2000/svg" width="400" height="400" fill="none"><g filter="url(#a)"><path fill="url(#b)" d="M0 0h400v400H0z"/><path fill="#fff" d="M37.582 295c-.832 0-1.536-.12-2.112-.36a3.86 3.86 0 0 1-1.368-1.008 3.889 3.889 0 0 1-.768-1.464 6.694 6.694 0 0 1-.24-1.8v-3.96h4.344v3.576c0 .112.04.208.12.288.08.064.176.096.288.096h6.072a.413.413 0 0 0 .264-.096c.08-.08.12-.176.12-.288v-3.576h4.344v3.576c0 .112.04.208.12.288.08.064.176.096.288.096h.936c.096 0 .176.024.24.072.064.032.12.12.168.264.048.144.08.368.096.672.016.304.024.72.024 1.248 0 .56-.008 1-.024 1.32-.016.32-.048.56-.096.72-.048.16-.104.256-.168.288a.534.534 0 0 1-.24.048h-.768c-.56 0-1.064-.048-1.512-.144a2.324 2.324 0 0 1-1.176-.648c-.4.336-.792.552-1.176.648a4.382 4.382 0 0 1-1.056.144h-6.72Zm6.72-9.912h-6.864V281.8h6.864v3.288Zm6.61 5.28a.447.447 0 0 0 .288-.096c.08-.08.12-.176.12-.288v-3.576h4.368v3.576c0 .256.128.384.384.384h.912c.096 0 .176.024.24.072.08.032.136.12.168.264.048.144.08.368.096.672.016.304.024.72.024 1.248 0 .56-.008 1-.024 1.32-.016.32-.048.56-.096.72-.032.16-.088.256-.168.288a.534.534 0 0 1-.24.048h-.744a7.465 7.465 0 0 1-1.512-.144 2.324 2.324 0 0 1-1.176-.648c-.384.336-.776.552-1.176.648a4.382 4.382 0 0 1-1.056.144H50a.534.534 0 0 1-.24-.048c-.08-.032-.136-.12-.168-.264a3.143 3.143 0 0 1-.096-.696c-.016-.304-.024-.72-.024-1.248 0-.56.008-1 .024-1.32.016-.32.048-.552.096-.696.032-.16.088-.256.168-.288a.389.389 0 0 1 .24-.072h.912Zm4.224 13.2h-3.432v-3.312h3.432v3.312Zm1.728-3.96H50v-3.312h6.864v3.312Zm6.84-9.24a.447.447 0 0 0 .288-.096c.08-.08.12-.176.12-.288v-3.576h4.368v3.96c0 .768-.112 1.44-.336 2.016a3.703 3.703 0 0 1-.912 1.44 3.92 3.92 0 0 1-1.392.888 5.02 5.02 0 0 1-1.728.288h-7.128a.534.534 0 0 1-.24-.048c-.08-.032-.136-.12-.168-.264a3.143 3.143 0 0 1-.096-.696c-.016-.304-.024-.72-.024-1.248 0-.56.008-1 .024-1.32.016-.32.048-.552.096-.696.032-.16.088-.256.168-.288a.389.389 0 0 1 .24-.072h6.72Zm1.464 9.24h-6.864v-3.312h6.864v3.312Zm2.637-3.672c.864 0 1.472-.176 1.824-.528.368-.352.552-.792.552-1.32v-7.68h4.368v3.624c0 .224.128.336.384.336h.912c.096 0 .176.024.24.072.08.032.136.12.168.264.048.144.08.368.096.672.016.304.024.72.024 1.248 0 .56-.008 1-.024 1.32-.016.32-.048.56-.096.72-.032.16-.088.256-.168.288a.534.534 0 0 1-.24.048h-.384c-.384 0-.72-.024-1.008-.072a6.652 6.652 0 0 1-.648 2.184 6.055 6.055 0 0 1-1.296 1.776 5.694 5.694 0 0 1-1.872 1.2c-.704.304-1.48.456-2.328.456h-1.176l-.384-4.608h1.056Zm12.799-5.568c.272 0 .408-.104.408-.312 0-.128-.088-.288-.264-.48l-4.368-4.344v-3.168l9.384-3.432 1.056 4.344-4.632 1.728 1.848 1.848a69.257 69.257 0 0 0 2.136 2.064c.576.496 1.056.88 1.44 1.152.4.256.736.424 1.008.504.272.064.544.096.816.096h.408c.096 0 .176.024.24.072.064.032.12.12.168.264.048.144.08.368.096.672.016.304.024.72.024 1.248 0 .56-.008 1-.024 1.32-.016.32-.048.56-.096.72-.048.16-.104.256-.168.288a.534.534 0 0 1-.24.048h-.408c-.56 0-1.048-.008-1.464-.024a7.283 7.283 0 0 1-1.104-.168 3.881 3.881 0 0 1-.912-.408 5.404 5.404 0 0 1-.864-.72c-.416.464-.912.8-1.488 1.008-.576.208-1.224.312-1.944.312h-5.808a.534.534 0 0 1-.24-.048c-.08-.032-.136-.12-.168-.264a3.143 3.143 0 0 1-.096-.696c-.016-.304-.024-.72-.024-1.248 0-.56.008-1 .024-1.32.016-.32.048-.552.096-.696.032-.16.088-.256.168-.288a.389.389 0 0 1 .24-.072h4.752Zm10.152 0a.447.447 0 0 0 .288-.096c.08-.08.12-.176.12-.288v-3.576h4.224v3.576c0 .112.04.208.12.288a.447.447 0 0 0 .552 0c.08-.08.12-.176.12-.288v-3.576h4.224v3.576c0 .112.04.208.12.288a.447.447 0 0 0 .552 0c.08-.08.12-.176.12-.288v-3.576h4.224v3.96c0 .8-.128 1.488-.384 2.064a4.15 4.15 0 0 1-1.032 1.44 4.328 4.328 0 0 1-1.488.864 5.501 5.501 0 0 1-1.704.264c-.336 0-.736-.048-1.2-.144a2.201 2.201 0 0 1-1.176-.648c-.416.336-.808.552-1.176.648-.352.096-.624.144-.816.144h-.648c-.336 0-.736-.048-1.2-.144a2.33 2.33 0 0 1-1.2-.648c-.384.336-.76.552-1.128.648-.368.096-.648.144-.84.144h-1.584a.534.534 0 0 1-.24-.048c-.08-.032-.136-.12-.168-.264a3.143 3.143 0 0 1-.096-.696c-.016-.304-.024-.72-.024-1.248 0-.56.008-1 .024-1.32.016-.32.048-.552.096-.696.032-.16.088-.256.168-.288a.389.389 0 0 1 .24-.072h.912Zm16.098-10.008h4.369V295h-4.369v-14.64Zm12.97 14.64c-.832 0-1.536-.12-2.112-.36a3.86 3.86 0 0 1-1.368-1.008 3.889 3.889 0 0 1-.768-1.464 6.694 6.694 0 0 1-.24-1.8v-3.96h4.344v3.576c0 .112.04.208.12.288.08.064.176.096.288.096h6.072a.413.413 0 0 0 .264-.096c.08-.08.12-.176.12-.288v-3.576h4.344v3.576c0 .112.04.208.12.288.08.064.176.096.288.096h.936c.096 0 .176.024.24.072.064.032.12.12.168.264.048.144.08.368.096.672.016.304.024.72.024 1.248 0 .56-.008 1-.024 1.32-.016.32-.048.56-.096.72-.048.16-.104.256-.168.288a.534.534 0 0 1-.24.048h-.768c-.56 0-1.064-.048-1.512-.144a2.324 2.324 0 0 1-1.176-.648c-.4.336-.792.552-1.176.648a4.382 4.382 0 0 1-1.056.144h-6.72Zm4.848 8.568h-3.432v-3.312h3.432v3.312Zm1.728-3.96h-6.864v-3.312h6.864v3.312Zm7.306-9.24a.413.413 0 0 0 .264-.096c.08-.08.12-.176.12-.288v-3.576h4.344v3.96c0 .768-.112 1.44-.336 2.016a3.85 3.85 0 0 1-.888 1.44 3.92 3.92 0 0 1-1.392.888 5.02 5.02 0 0 1-1.728.288h-1.848a.534.534 0 0 1-.24-.048c-.08-.032-.136-.12-.168-.264a3.143 3.143 0 0 1-.096-.696c-.016-.304-.024-.72-.024-1.248 0-.56.008-1 .024-1.32.016-.32.048-.552.096-.696.032-.16.088-.256.168-.288a.389.389 0 0 1 .24-.072h1.464Zm5.4 9.24h-6.864v-3.312h6.864v3.312Zm6.459-9.24c.096 0 .176.024.24.072.08.032.136.12.168.264.048.144.08.368.096.672.016.304.024.72.024 1.248 0 .56-.008 1-.024 1.32-.016.32-.048.56-.096.72-.032.16-.088.256-.168.288a.534.534 0 0 1-.24.048h-1.176c-.832 0-1.536-.12-2.112-.36a3.86 3.86 0 0 1-1.368-1.008 3.889 3.889 0 0 1-.768-1.464 6.694 6.694 0 0 1-.24-1.8V280.36h4.368v9.624c0 .256.128.384.384.384h.912Zm1.454 0a.413.413 0 0 0 .264-.096c.08-.08.12-.176.12-.288v-3.576h4.344v3.96c0 .768-.112 1.44-.336 2.016a3.85 3.85 0 0 1-.888 1.44 3.92 3.92 0 0 1-1.392.888 5.02 5.02 0 0 1-1.728.288h-1.848a.534.534 0 0 1-.24-.048c-.08-.032-.136-.12-.168-.264a3.143 3.143 0 0 1-.096-.696c-.016-.304-.024-.72-.024-1.248 0-.56.008-1 .024-1.32.016-.32.048-.552.096-.696.032-.16.088-.256.168-.288a.389.389 0 0 1 .24-.072h1.464Zm5.4-5.28h-6.864V281.8h6.864v3.288Zm8.075 8.856a7.1 7.1 0 0 1-.456 2.544 6.42 6.42 0 0 1-1.272 2.088 5.912 5.912 0 0 1-1.968 1.44c-.752.352-1.592.528-2.52.528h-2.64l-.408-4.608h2.52c.864 0 1.472-.176 1.824-.528.368-.352.552-.792.552-1.32v-7.68h4.368v7.536Zm14.593-3.576c.096 0 .176.024.24.072.064.032.112.12.144.264.048.144.08.368.096.672.016.304.024.72.024 1.248 0 .56-.008 1-.024 1.32-.016.32-.048.56-.096.72-.032.16-.08.256-.144.288a.534.534 0 0 1-.24.048h-1.368c-.048.976-.232 1.832-.552 2.568a5.237 5.237 0 0 1-1.248 1.848 5.113 5.113 0 0 1-1.872 1.152 6.974 6.974 0 0 1-2.352.384h-3.576l-.265-4.632h4.105c.528 0 .896-.104 1.103-.312.224-.208.336-.544.336-1.008h-.383c-.992 0-1.808-.112-2.448-.336-.64-.224-1.144-.536-1.512-.936-.352-.416-.6-.92-.744-1.512a9.33 9.33 0 0 1-.192-1.968c0-.688.104-1.344.312-1.968a4.787 4.787 0 0 1 .912-1.632c.416-.48.92-.856 1.512-1.128.592-.288 1.264-.432 2.016-.432.656 0 1.28.096 1.872.288a3.994 3.994 0 0 1 1.56.936c.448.416.8.96 1.056 1.632.272.656.408 1.464.408 2.424h1.32Zm-6.864-.408c0 .256.048.456.144.6.096.144.312.216.648.216h.648v-.672c0-.608-.248-.912-.744-.912-.464 0-.696.256-.696.768Zm8.183-1.152.384-4.368h5.952c.464 0 .904.056 1.32.168.416.112.808.344 1.176.696.384.352.744.864 1.08 1.536.336.656.664 1.528.984 2.616l-1.176.912h2.544c.096 0 .176.024.24.072.08.032.136.12.168.264.048.144.08.368.096.672.016.304.024.72.024 1.248 0 .56-.008 1-.024 1.32-.016.32-.048.56-.096.72-.032.16-.088.256-.168.288a.534.534 0 0 1-.24.048h-1.968c-.912 0-1.648-.184-2.208-.552a4.68 4.68 0 0 1-1.296-1.272l-.456.24c-.528.304-1.016.56-1.464.768-.448.192-.904.352-1.368.48-.448.112-.928.2-1.44.264-.496.048-1.056.072-1.68.072h-1.704a.534.534 0 0 1-.24-.048c-.08-.032-.136-.12-.168-.264a3.143 3.143 0 0 1-.096-.696c-.016-.304-.024-.72-.024-1.248 0-.56.008-1 .024-1.32.016-.32.048-.552.096-.696.032-.16.088-.256.168-.288a.389.389 0 0 1 .24-.072h3.024c.4-.016.808-.056 1.224-.12.432-.08.888-.184 1.368-.312a11.91 11.91 0 0 0 1.632-.624c-.064-.192-.16-.32-.288-.384a.94.94 0 0 0-.504-.12h-5.136Zm13.186 1.56a.447.447 0 0 0 .288-.096c.08-.08.12-.176.12-.288 0-1.6.424-2.856 1.272-3.768.864-.928 2.04-1.392 3.528-1.392 1.568 0 2.744.456 3.528 1.368.784.912 1.176 2.128 1.176 3.648 0 1.6-.432 2.864-1.296 3.792-.864.912-2.056 1.368-3.576 1.368-.464 0-.92-.064-1.368-.192a3.043 3.043 0 0 1-1.152-.6c-.192.176-.4.312-.624.408a3.795 3.795 0 0 1-.72.24 4.586 4.586 0 0 1-.888.12c-.336.016-.736.024-1.2.024a.534.534 0 0 1-.24-.048c-.08-.032-.136-.12-.168-.264a3.143 3.143 0 0 1-.096-.696c-.016-.304-.024-.72-.024-1.248 0-.56.008-1 .024-1.32.016-.32.048-.552.096-.696.032-.16.088-.256.168-.288a.389.389 0 0 1 .24-.072h.912Zm4.368-.528c0 .336.072.552.216.648a.93.93 0 0 0 .528.144.847.847 0 0 0 .48-.144c.144-.096.216-.312.216-.648 0-.528-.232-.792-.696-.792-.496 0-.744.264-.744.792Zm9.525.528c0-.784.16-1.52.48-2.208.32-.704.816-1.464 1.488-2.28l-1.008-1.056 3.072-3.024c1.232 1.12 2.224 2.096 2.976 2.928.752.816 1.328 1.552 1.728 2.208.416.64.688 1.232.816 1.776.144.544.216 1.096.216 1.656 0 .672-.128 1.288-.384 1.848a4.571 4.571 0 0 1-1.056 1.464c-.432.416-.96.744-1.584.984a5.72 5.72 0 0 1-1.992.336c-.72 0-1.376-.112-1.968-.336a4.394 4.394 0 0 1-1.512-.936c-.4-.4-.712-.88-.936-1.44a5.258 5.258 0 0 1-.336-1.92Zm5.663-.432c0-.448-.263-.912-.791-1.392-.528.512-.792.976-.792 1.392 0 .464.264.696.792.696s.791-.232.791-.696Zm10.174 4.008a7.1 7.1 0 0 1-.456 2.544 6.42 6.42 0 0 1-1.272 2.088 5.912 5.912 0 0 1-1.968 1.44c-.752.352-1.592.528-2.52.528h-2.64l-.408-4.608h2.52c.864 0 1.472-.176 1.824-.528.368-.352.552-.792.552-1.32v-7.68h4.368v7.536Zm-.552-12.816h-3.432v-3.288h3.432v3.288Zm1.728 3.96h-6.864V281.8h6.864v3.288Zm10.175 9.384c0 1.056-.152 1.984-.456 2.784-.288.816-.704 1.496-1.248 2.04a5.222 5.222 0 0 1-1.944 1.224c-.736.288-1.544.432-2.424.432h-3.576l-.264-4.632h4.104c.528 0 .896-.104 1.104-.312.224-.208.336-.544.336-1.008h-.384c-.992 0-1.808-.112-2.448-.336-.64-.224-1.144-.536-1.512-.936-.352-.416-.6-.92-.744-1.512a9.33 9.33 0 0 1-.192-1.968c0-.688.104-1.344.312-1.968a4.787 4.787 0 0 1 .912-1.632c.416-.48.92-.856 1.512-1.128.592-.288 1.264-.432 2.016-.432.656 0 1.28.096 1.872.288a3.994 3.994 0 0 1 1.56.936c.448.416.8.96 1.056 1.632.272.656.408 1.464.408 2.424v4.104Zm-5.544-4.512c0 .256.048.456.144.6.096.144.312.216.648.216h.648v-.672c0-.608-.248-.912-.744-.912-.464 0-.696.256-.696.768Zm4.863 5.976c.864 0 1.473-.176 1.825-.528.368-.352.552-.792.552-1.32v-7.68h4.368v3.624c0 .224.128.336.384.336h.912c.096 0 .176.024.24.072.08.032.136.12.168.264.048.144.08.368.096.672.016.304.024.72.024 1.248 0 .56-.008 1-.024 1.32-.016.32-.048.56-.096.72-.032.16-.088.256-.168.288a.534.534 0 0 1-.24.048h-.385c-.383 0-.719-.024-1.007-.072a6.652 6.652 0 0 1-.648 2.184 6.055 6.055 0 0 1-1.296 1.776 5.694 5.694 0 0 1-1.872 1.2c-.704.304-1.48.456-2.329.456h-1.176l-.384-4.608h1.056Zm10.706-5.568a.413.413 0 0 0 .264-.096c.08-.08.12-.176.12-.288v-3.576h4.344v3.96c0 .768-.112 1.44-.336 2.016a3.85 3.85 0 0 1-.888 1.44 3.92 3.92 0 0 1-1.392.888 5.02 5.02 0 0 1-1.728.288h-1.848a.534.534 0 0 1-.24-.048c-.08-.032-.136-.12-.168-.264a3.143 3.143 0 0 1-.096-.696c-.016-.304-.024-.72-.024-1.248 0-.56.008-1 .024-1.32.016-.32.048-.552.096-.696.032-.16.088-.256.168-.288a.389.389 0 0 1 .24-.072h1.464Zm3.672 13.2h-3.432v-3.312h3.432v3.312Zm1.728-3.96h-6.864v-3.312h6.864v3.312Zm13.356-5.136c0 1.056-.152 1.984-.456 2.784-.288.816-.704 1.496-1.248 2.04a5.222 5.222 0 0 1-1.944 1.224c-.736.288-1.544.432-2.424.432h-3.576l-.264-4.632h4.104c.528 0 .896-.104 1.104-.312.224-.208.336-.544.336-1.008h-.384c-.992 0-1.808-.112-2.448-.336-.64-.224-1.144-.536-1.512-.936-.352-.416-.6-.92-.744-1.512a9.33 9.33 0 0 1-.192-1.968c0-.688.104-1.344.312-1.968a4.787 4.787 0 0 1 .912-1.632c.416-.48.92-.856 1.512-1.128.592-.288 1.264-.432 2.016-.432.656 0 1.28.096 1.872.288a3.994 3.994 0 0 1 1.56.936c.448.416.8.96 1.056 1.632.272.656.408 1.464.408 2.424v4.104Zm-5.544-4.512c0 .256.048.456.144.6.096.144.312.216.648.216h.648v-.672c0-.608-.248-.912-.744-.912-.464 0-.696.256-.696.768Zm19.128.024c0 .112.04.208.12.288.08.064.176.096.288.096h.912c.096 0 .176.024.24.072.08.032.136.12.168.264.048.144.08.368.096.672.016.304.024.72.024 1.248 0 .56-.008 1-.024 1.32-.016.32-.048.56-.096.72-.032.16-.088.256-.168.288a.534.534 0 0 1-.24.048h-1.056c-.592 0-1.16-.112-1.704-.336-.528-.24-.928-.696-1.2-1.368-.4.32-.816.536-1.248.648-.416.096-.92.144-1.512.144-.624 0-1.2-.088-1.728-.264a3.731 3.731 0 0 1-1.344-.864c-.368-.4-.656-.896-.864-1.488-.192-.608-.288-1.328-.288-2.16 0-.624.104-1.24.312-1.848a5.72 5.72 0 0 1 .912-1.656c.4-.48.88-.872 1.44-1.176.576-.304 1.224-.456 1.944-.456h.672v-1.464h4.344v7.272Zm-5.544-.792c0 .272.056.448.168.528a.94.94 0 0 0 .504.12c.272 0 .464-.056.576-.168a.651.651 0 0 0 .192-.48v-.792h-.648c-.528 0-.792.264-.792.792Zm7.785 1.176a.447.447 0 0 0 .288-.096c.08-.08.12-.176.12-.288v-3.576h4.368v3.576c0 .256.128.384.384.384h.912c.096 0 .176.024.24.072.08.032.136.12.168.264.048.144.08.368.096.672.016.304.024.72.024 1.248 0 .56-.008 1-.024 1.32-.016.32-.048.56-.096.72-.032.16-.088.256-.168.288a.534.534 0 0 1-.24.048h-.744a7.465 7.465 0 0 1-1.512-.144 2.324 2.324 0 0 1-1.176-.648c-.384.336-.776.552-1.176.648a4.382 4.382 0 0 1-1.056.144h-1.32a.534.534 0 0 1-.24-.048c-.08-.032-.136-.12-.168-.264a3.143 3.143 0 0 1-.096-.696c-.016-.304-.024-.72-.024-1.248 0-.56.008-1 .024-1.32.016-.32.048-.552.096-.696.032-.16.088-.256.168-.288a.389.389 0 0 1 .24-.072h.912Zm5.952-5.28h-6.864V281.8h6.864v3.288Zm1.705 5.28a5.34 5.34 0 0 1-.216-.792 6.186 6.186 0 0 1-.048-.768c0-.528.096-1.064.288-1.608.208-.56.512-1.056.912-1.488.4-.448.904-.816 1.512-1.104.624-.288 1.344-.432 2.16-.432a6.19 6.19 0 0 1 1.92.288 3.728 3.728 0 0 1 1.512.912c.416.416.744.96.984 1.632.24.672.36 1.488.36 2.448v.912c0 .672-.112 1.288-.336 1.848a3.763 3.763 0 0 1-.984 1.464c-.448.416-1.016.744-1.704.984-.672.224-1.472.336-2.4.336h-5.544a.534.534 0 0 1-.24-.048c-.08-.032-.136-.12-.168-.264a3.143 3.143 0 0 1-.096-.696c-.016-.304-.024-.72-.024-1.248 0-.56.008-1 .024-1.32.016-.32.048-.552.096-.696.032-.16.088-.256.168-.288a.389.389 0 0 1 .24-.072h1.584Zm5.136.144a.89.89 0 0 0 .12-.48c.016-.192.024-.384.024-.576 0-.272-.056-.512-.168-.72-.096-.224-.304-.336-.624-.336a.651.651 0 0 0-.48.192.616.616 0 0 0-.168.456c0 .192.064.416.192.672.144.256.512.52 1.104.792Zm1.608-7.656h-4.368v-3.288h4.368v3.288Zm8.721 7.176c0 .224.128.336.384.336h.912c.096 0 .176.024.24.072.08.032.136.12.168.264.048.144.08.368.096.672.016.304.024.72.024 1.248 0 .56-.008 1-.024 1.32-.016.32-.048.56-.096.72-.032.16-.088.256-.168.288a.534.534 0 0 1-.24.048h-.384c-.384 0-.72-.024-1.008-.072a6.652 6.652 0 0 1-.648 2.184 6.055 6.055 0 0 1-1.296 1.776 5.694 5.694 0 0 1-1.872 1.2 5.75 5.75 0 0 1-2.304.456h-2.64l-.408-4.608h2.52c.864 0 1.472-.176 1.824-.528.368-.352.552-.792.552-1.32v-7.68h4.368v3.624Zm2.214.336a.447.447 0 0 0 .288-.096c.08-.08.12-.176.12-.288v-3.576h4.224v3.576c0 .112.04.208.12.288a.447.447 0 0 0 .552 0c.08-.08.12-.176.12-.288v-3.576h4.224v3.576c0 .112.04.208.12.288a.447.447 0 0 0 .552 0c.08-.08.12-.176.12-.288v-3.576h4.224v3.576c0 .112.04.208.12.288.08.064.168.096.264.096h.936c.096 0 .176.024.24.072.08.032.136.12.168.264.048.144.08.368.096.672.016.304.024.72.024 1.248 0 .56-.008 1-.024 1.32-.016.32-.048.56-.096.72-.032.16-.088.256-.168.288a.534.534 0 0 1-.24.048h-.768a6.445 6.445 0 0 1-1.44-.144c-.4-.096-.768-.312-1.104-.648-.4.336-.824.552-1.272.648-.432.096-.88.144-1.344.144-.336 0-.736-.048-1.2-.144a2.201 2.201 0 0 1-1.176-.648c-.416.336-.808.552-1.176.648-.352.096-.624.144-.816.144h-.648c-.336 0-.736-.048-1.2-.144a2.33 2.33 0 0 1-1.2-.648c-.384.336-.76.552-1.128.648-.368.096-.648.144-.84.144h-1.584a.534.534 0 0 1-.24-.048c-.08-.032-.136-.12-.168-.264a3.143 3.143 0 0 1-.096-.696c-.016-.304-.024-.72-.024-1.248 0-.56.008-1 .024-1.32.016-.32.048-.552.096-.696.032-.16.088-.256.168-.288a.389.389 0 0 1 .24-.072h.912Zm8.976-9.24h-3.432v-3.288h3.432v3.288Zm1.728 3.96h-6.864V281.8h6.864v3.288Zm6.195 5.28a.447.447 0 0 0 .288-.096c.08-.08.12-.176.12-.288v-3.576h4.368v3.576c0 .256.128.384.384.384h.912c.096 0 .176.024.24.072.08.032.136.12.168.264.048.144.08.368.096.672.016.304.024.72.024 1.248 0 .56-.008 1-.024 1.32-.016.32-.048.56-.096.72-.032.16-.088.256-.168.288a.534.534 0 0 1-.24.048h-.744a7.465 7.465 0 0 1-1.512-.144 2.324 2.324 0 0 1-1.176-.648c-.384.336-.776.552-1.176.648a4.382 4.382 0 0 1-1.056.144h-1.32a.534.534 0 0 1-.24-.048c-.08-.032-.136-.12-.168-.264a3.143 3.143 0 0 1-.096-.696c-.016-.304-.024-.72-.024-1.248 0-.56.008-1 .024-1.32.016-.32.048-.552.096-.696.032-.16.088-.256.168-.288a.389.389 0 0 1 .24-.072h.912Zm5.952 9.24h-6.864v-3.312h6.864v3.312Zm1.584-9.24a.413.413 0 0 0 .264-.096c.08-.08.12-.176.12-.288v-3.576h4.344v3.96c0 .768-.112 1.44-.336 2.016a3.85 3.85 0 0 1-.888 1.44 3.92 3.92 0 0 1-1.392.888 5.02 5.02 0 0 1-1.728.288h-1.848a.534.534 0 0 1-.24-.048c-.08-.032-.136-.12-.168-.264a3.143 3.143 0 0 1-.096-.696c-.016-.304-.024-.72-.024-1.248 0-.56.008-1 .024-1.32.016-.32.048-.552.096-.696.032-.16.088-.256.168-.288a.389.389 0 0 1 .24-.072h1.464Zm3.672 13.2h-3.432v-3.312h3.432v3.312Zm1.728-3.96h-6.864v-3.312h6.864v3.312Zm3.324-9.24c0-.784.16-1.52.48-2.208.32-.704.816-1.464 1.488-2.28l-1.008-1.056 3.072-3.024c1.232 1.12 2.224 2.096 2.976 2.928.752.816 1.328 1.552 1.728 2.208.416.64.688 1.232.816 1.776.144.544.216 1.096.216 1.656 0 .672-.128 1.288-.384 1.848a4.571 4.571 0 0 1-1.056 1.464c-.432.416-.96.744-1.584.984a5.72 5.72 0 0 1-1.992.336c-.72 0-1.376-.112-1.968-.336a4.394 4.394 0 0 1-1.512-.936c-.4-.4-.712-.88-.936-1.44a5.258 5.258 0 0 1-.336-1.92Zm5.664-.432c0-.448-.264-.912-.792-1.392-.528.512-.792.976-.792 1.392 0 .464.264.696.792.696s.792-.232.792-.696Zm10.174 4.008a7.1 7.1 0 0 1-.456 2.544 6.42 6.42 0 0 1-1.272 2.088 5.912 5.912 0 0 1-1.968 1.44c-.752.352-1.592.528-2.52.528h-2.641l-.408-4.608h2.52c.864 0 1.473-.176 1.825-.528.368-.352.552-.792.552-1.32v-7.68h4.368v7.536Zm11.35.528c0 1.056-.152 1.984-.456 2.784-.288.816-.704 1.496-1.248 2.04a5.222 5.222 0 0 1-1.944 1.224c-.736.288-1.544.432-2.424.432h-3.576l-.264-4.632h4.104c.528 0 .896-.104 1.104-.312.224-.208.336-.544.336-1.008h-.384c-.992 0-1.808-.112-2.448-.336-.64-.224-1.144-.536-1.512-.936-.352-.416-.6-.92-.744-1.512a9.33 9.33 0 0 1-.192-1.968c0-.688.104-1.344.312-1.968a4.787 4.787 0 0 1 .912-1.632c.416-.48.92-.856 1.512-1.128.592-.288 1.264-.432 2.016-.432.656 0 1.28.096 1.872.288a3.994 3.994 0 0 1 1.56.936c.448.416.8.96 1.056 1.632.272.656.408 1.464.408 2.424v4.104Zm-5.544-4.512c0 .256.048.456.144.6.096.144.312.216.648.216h.648v-.672c0-.608-.248-.912-.744-.912-.464 0-.696.256-.696.768Zm8.968-4.464 3.288-3.168 4.224 5.16c.608.72 1 1.368 1.176 1.944.192.576.288 1.112.288 1.608 0 .544-.096 1.056-.288 1.536a3.47 3.47 0 0 1-.816 1.272c-.368.352-.84.632-1.416.84-.56.208-1.224.312-1.992.312h-6.336l-.384-4.632h5.544c.256 0 .384-.104.384-.312 0-.144-.088-.328-.264-.552l-3.408-4.008Z"/><path fill="#fff" fill-rule="evenodd" d="M194.882 104.16c18.808 1.545 30.131 19.254 44.198 31.844 15.54 13.907 39.162 23.438 40.813 44.236 1.689 21.277-16.879 38.116-33.184 51.872-14.702 12.405-32.602 19.422-51.827 19.854-19.73.443-40.435-3.326-54.209-17.471-13.645-14.013-16.022-34.692-15.635-54.255.378-19.084 4.84-38.088 17.744-52.144 13.44-14.64 32.301-25.561 52.1-23.936Z" clip-rule="evenodd"/><g clip-path="url(#c)"><path fill="#007ACC" d="M199.141 172.467c0 2.504 2.374 3.928 8.043 6.353 5.589 2.389 13.207 5.645 13.207 14.866v.012a16.928 16.928 0 0 1-1.19 6.171c-.762 1.944-1.871 3.683-3.257 5.108-1.386 1.424-3.019 2.501-4.792 3.162a11.759 11.759 0 0 1-5.498.697 8.835 8.835 0 0 1-1.137.073c-3.287-.019-6.452-1.422-8.888-3.941-1.388-1.422-2.501-3.159-3.268-5.099a17.175 17.175 0 0 1-1.184-6.171c0-1.225.415-2.365 1.169-3.226.76-.824 1.769-1.284 2.818-1.284 1.049 0 2.058.46 2.819 1.284.754.855 1.168 2.001 1.168 3.214 0 5.771 5.531 6.062 6.641 6.062 1.11 0 6.641-.291 6.641-6.062 0-2.504-2.375-3.929-8.044-6.354-5.588-2.389-13.206-5.638-13.206-14.865a16.912 16.912 0 0 1 1.19-6.184c.765-1.94 1.864-3.668 3.261-5.092 1.381-1.432 3.013-2.513 4.787-3.171a12.032 12.032 0 0 1 5.498-.703c1.772-.179 3.557.06 5.244.703 2.665 1.008 4.988 2.941 6.643 5.529 1.655 2.588 2.561 5.702 2.59 8.906 0 1.224-.414 2.364-1.169 3.225-.76.825-1.769 1.285-2.818 1.285-1.049 0-2.058-.46-2.818-1.285a4.586 4.586 0 0 1-.868-1.473 5.063 5.063 0 0 1-.301-1.74c0-5.772-5.53-6.063-6.641-6.063-1.11 0-6.64.291-6.64 6.063Zm-37.188-15.156h23.906a3.635 3.635 0 0 1 2.217.762c.656.499 1.167 1.21 1.469 2.041.302.832.38 1.747.225 2.629a4.77 4.77 0 0 1-1.095 2.328 3.96 3.96 0 0 1-1.29.989 3.527 3.527 0 0 1-1.526.344h-7.968v37.891c.001.9-.231 1.78-.668 2.529-.438.749-1.06 1.333-1.789 1.677a3.526 3.526 0 0 1-2.304.257c-.773-.177-1.483-.612-2.039-1.25a4.586 4.586 0 0 1-.868-1.473 5.063 5.063 0 0 1-.301-1.74v-37.891h-7.969a3.637 3.637 0 0 1-2.216-.762c-.656-.499-1.168-1.21-1.47-2.041a5.146 5.146 0 0 1-.225-2.629 4.763 4.763 0 0 1 1.096-2.328 3.96 3.96 0 0 1 1.29-.989 3.523 3.523 0 0 1 1.525-.344Z"/></g></g><defs><linearGradient id="b" x1="426" x2="0" y1="-85" y2="400" gradientUnits="userSpaceOnUse"><stop stop-color="#fff"/><stop offset=".772" stop-color="#007ACC"/></linearGradient><clipPath id="c"><path fill="#fff" d="M148 138h87v87h-87z"/></clipPath><filter id="a" width="600" height="600" x="-100" y="-100" color-interpolation-filters="sRGB" filterUnits="userSpaceOnUse"><feFlood flood-opacity="0" result="BackgroundImageFix"/><feGaussianBlur in="BackgroundImageFix" stdDeviation="50"/><feComposite in2="SourceAlpha" operator="in" result="effect1_backgroundBlur_13_13"/><feBlend in="SourceGraphic" in2="effect1_backgroundBlur_13_13" result="shape"/></filter></defs></svg>